SplineFontDB: 3.0
FontName: Ie102
FullName: Ie102
FamilyName: Ie102
Weight: Regular
Copyright: CC:0 2017, Pawel Adamowicz
UComments: "2017-7-25: Created with FontForge (http://fontforge.org)"
Version: 001.000
ItalicAngle: 0
UnderlinePosition: -100
UnderlineWidth: 50
Ascent: 778
Descent: 222
InvalidEm: 0
LayerCount: 2
Layer: 0 0 "Back" 1
Layer: 1 0 "Fore" 0
XUID: [1021 230 1045428788 18982]
FSType: 0
OS2Version: 0
OS2_WeightWidthSlopeOnly: 0
OS2_UseTypoMetrics: 1
CreationTime: 1500995000
ModificationTime: 1501016958
PfmFamily: 17
TTFWeight: 400
TTFWidth: 5
LineGap: 90
VLineGap: 0
OS2TypoAscent: 0
OS2TypoAOffset: 1
OS2TypoDescent: 0
OS2TypoDOffset: 1
OS2TypoLinegap: 90
OS2WinAscent: 0
OS2WinAOffset: 1
OS2WinDescent: 0
OS2WinDOffset: 1
HheadAscent: 0
HheadAOffset: 1
HheadDescent: 0
HheadDOffset: 1
OS2Vendor: 'PfEd'
MarkAttachClasses: 1
DEI: 91125
LangName: 1033
Encoding: iso8859-2
UnicodeInterp: none
NameList: AGL For New Fonts
DisplaySize: -48
AntiAlias: 1
FitToEm: 0
WinInfo: 0 16 4
BeginPrivate: 0
EndPrivate
Grid
500 875 m 17
 500 750 l 1
 500 625 l 1
 500 500 l 1
 500 375 l 1
 500 250 l 1
 500 125 l 1
 500 0 l 1033
375 875 m 17
 375 750 l 1
 375 625 l 1
 375 500 l 1
 375 375 l 1
 375 250 l 1
 375 125 l 1
 375 0 l 1033
250 875 m 17
 250 750 l 1
 250 625 l 1
 250 500 l 1
 250 375 l 1
 250 250 l 1
 250 125 l 1
 250 0 l 1033
125 875 m 17
 125 750 l 1
 125 625 l 1
 125 500 l 1
 125 375 l 1
 125 250 l 1
 125 125 l 1
 125 0 l 1033
0 125 m 25
 625 125 l 1025
0 250 m 25
 625 250 l 1025
0 375 m 25
 625 375 l 1025
0 500 m 25
 625 500 l 1025
0 625 m 25
 625 625 l 1025
0 750 m 25
 625 750 l 1025
0 875 m 1
 625 875 l 1
 625 0 l 1
 0 0 l 1
 0 875 l 1
EndSplineSet
BeginChars: 256 86

StartChar: A
Encoding: 65 65 0
Width: 625
VWidth: 0
Flags: HW
HStem: 0 21G<62.5 190.968 434.032 562.5> 0 21G<62.5 190.968 434.032 562.5> 188 124<254.5 370.5> 856 20G<246.208 378.792>
LayerCount: 2
Fore
SplineSet
374.5 876 m 1xb0
 562.5 0 l 1
 438.5 0 l 1
 396.5 188 l 1
 228.5 188 l 1
 186.5 0 l 1
 62.5 0 l 1
 250.5 876 l 1
 374.5 876 l 1xb0
370.5 312 m 1
 312.5 583 l 1
 254.5 312 l 1
 370.5 312 l 1
EndSplineSet
EndChar

StartChar: B
Encoding: 66 66 1
Width: 625
VWidth: 0
Flags: HW
HStem: 0 124<186.5 380.915> 376 124<186.5 382.689> 750 126<186.5 380.915>
VStem: 62.5 124<124 376 500 750> 438.5 124<180.698 320.265 554.304 693.381>
LayerCount: 2
Fore
SplineSet
186.5 376 m 1
 186.5 124 l 1
 312.5 124 l 2
 381.5 124 438.5 181 438.5 250 c 0
 438.5 319 381.5 376 312.5 376 c 2
 186.5 376 l 1
62.5 876 m 1
 312.5 876 l 2
 450.5 876 562.5 762 562.5 624 c 0
 562.5 550 528.5 484 476.5 438 c 1
 528.5 392 562.5 324 562.5 250 c 0
 562.5 112 450.5 0 312.5 0 c 2
 62.5 0 l 1
 62.5 876 l 1
186.5 750 m 1
 186.5 500 l 1
 312.5 500 l 2
 381.5 500 438.5 555 438.5 624 c 0
 438.5 693 381.5 750 312.5 750 c 2
 186.5 750 l 1
EndSplineSet
EndChar

StartChar: C
Encoding: 67 67 2
Width: 625
VWidth: 0
Flags: HW
HStem: 0 124<243.198 381.802> 750 126<243.198 381.802>
VStem: 62.5 124<181.585 692.572> 438.5 124<181.585 250 624 692.572>
LayerCount: 2
Fore
SplineSet
438.5 624 m 1
 438.5 693 381.5 750 312.5 750 c 0
 243.5 750 186.5 693 186.5 624 c 2
 186.5 250 l 2
 186.5 181 243.5 124 312.5 124 c 0
 381.5 124 438.5 181 438.5 250 c 1
 562.5 250 l 1
 562.5 112 450.5 0 312.5 0 c 0
 174.5 0 62.5 112 62.5 250 c 2
 62.5 624 l 2
 62.5 762 174.5 876 312.5 876 c 0
 450.5 876 562.5 762 562.5 624 c 1
 438.5 624 l 1
EndSplineSet
EndChar

StartChar: D
Encoding: 68 68 3
Width: 625
VWidth: 0
Flags: HW
HStem: 0 124<186.5 380.915> 750 126<186.5 380.915>
VStem: 62.5 124<124 750> 438.5 124<181.585 692.572>
LayerCount: 2
Fore
SplineSet
62.5 0 m 1
 62.5 876 l 1
 312.5 876 l 0
 450.5 876 562.5 762 562.5 624 c 2
 562.5 250 l 2
 562.5 112 450.5 0 312.5 0 c 0
 62.5 0 l 1
186.5 124 m 1
 312.5 124 l 2
 381.5 124 438.5 181 438.5 250 c 2
 438.5 624 l 2
 438.5 693 381.5 750 312.5 750 c 2
 186.5 750 l 1
 186.5 124 l 1
EndSplineSet
EndChar

StartChar: E
Encoding: 69 69 4
Width: 625
VWidth: 0
Flags: HW
HStem: 0 124<186.5 562.5> 376 124<186.5 438.5> 750 126<186.5 562.5>
VStem: 62.5 124<124 376 500 750>
LayerCount: 2
Fore
SplineSet
438.5 500 m 1
 438.5 376 l 1
 186.5 376 l 1
 186.5 124 l 1
 562.5 124 l 1
 562.5 0 l 1
 62.5 0 l 1
 62.5 876 l 1
 562.5 876 l 1
 562.5 750 l 1
 186.5 750 l 1
 186.5 500 l 1
 438.5 500 l 1
EndSplineSet
EndChar

StartChar: F
Encoding: 70 70 5
Width: 625
VWidth: 0
Flags: HW
HStem: 0 21G<62.5 186.5> 0 21G<62.5 186.5> 376 124<186.5 438.5> 750 126<186.5 562.5>
VStem: 62.5 124<0 376 500 750>
LayerCount: 2
Fore
SplineSet
562.5 876 m 1xb8
 562.5 750 l 1
 186.5 750 l 1
 186.5 500 l 1
 438.5 500 l 1
 438.5 376 l 1
 186.5 376 l 1
 186.5 0 l 1
 62.5 0 l 1
 62.5 876 l 1
 562.5 876 l 1xb8
EndSplineSet
EndChar

StartChar: G
Encoding: 71 71 6
Width: 625
VWidth: 0
Flags: HW
HStem: 0 124<243.198 381.802> 376 124<312.5 438.5> 750 126<243.198 381.802>
VStem: 62.5 124<181.585 692.572> 438.5 124<181.585 376 624 692.572>
LayerCount: 2
Fore
SplineSet
438.5 624 m 1
 438.5 693 381.5 750 312.5 750 c 0
 243.5 750 186.5 693 186.5 624 c 2
 186.5 250 l 2
 186.5 181 243.5 124 312.5 124 c 0
 381.5 124 438.5 181 438.5 250 c 2
 438.5 376 l 1
 312.5 376 l 1
 312.5 500 l 1
 562.5 500 l 1
 562.5 250 l 0
 562.5 112 450.5 0 312.5 0 c 0
 174.5 0 62.5 112 62.5 250 c 2
 62.5 624 l 2
 62.5 762 174.5 876 312.5 876 c 0
 450.5 876 562.5 762 562.5 624 c 1
 438.5 624 l 1
EndSplineSet
EndChar

StartChar: H
Encoding: 72 72 7
Width: 625
VWidth: 0
Flags: HW
HStem: 0 21G<62.5 186.5 438.5 562.5> 0 21G<62.5 186.5 438.5 562.5> 376 124<186.5 438.5> 856 20G<62.5 186.5 438.5 562.5>
VStem: 62.5 124<0 376 500 876> 438.5 124<0 376 500 876>
LayerCount: 2
Fore
SplineSet
62.5 876 m 1xbc
 186.5 876 l 1
 186.5 500 l 1
 438.5 500 l 1
 438.5 876 l 1
 562.5 876 l 1
 562.5 0 l 1
 438.5 0 l 1
 438.5 376 l 1
 186.5 376 l 1
 186.5 0 l 1
 62.5 0 l 1
 62.5 876 l 1xbc
EndSplineSet
EndChar

StartChar: I
Encoding: 73 73 8
Width: 250
VWidth: 0
Flags: HW
HStem: 0 21G<62.5 186.5> 0 21G<62.5 186.5> 856 20G<62.5 186.5>
VStem: 62.5 124<0 876>
LayerCount: 2
Fore
SplineSet
62.5 876 m 1xb0
 186.5 876 l 1
 186.5 0 l 1
 62.5 0 l 1
 62.5 876 l 1xb0
EndSplineSet
EndChar

StartChar: J
Encoding: 74 74 9
Width: 625
VWidth: 0
Flags: HW
HStem: 0 124<243.198 381.802> 750 126<62.5 438.5>
VStem: 62.5 124<181.585 250> 438.5 124<181.585 750>
LayerCount: 2
Fore
SplineSet
186.5 250 m 1
 186.5 181 243.5 124 312.5 124 c 0
 381.5 124 438.5 181 438.5 250 c 2
 438.5 750 l 1
 62.5 750 l 1
 62.5 876 l 1
 562.5 876 l 1
 562.5 250 l 2
 562.5 112 450.5 0 312.5 0 c 0
 174.5 0 62.5 112 62.5 250 c 1
 186.5 250 l 1
EndSplineSet
EndChar

StartChar: K
Encoding: 75 75 10
Width: 625
VWidth: 0
Flags: HW
HStem: 0 21G<62.5 186.5 423.365 562.5> 0 21G<62.5 186.5 423.365 562.5> 856 20G<62.5 186.5 423.41 562.5>
VStem: 62.5 124<0 333 542 876>
LayerCount: 2
Fore
SplineSet
438.5 876 m 1xb0
 562.5 876 l 1
 234.5 438 l 1
 562.5 0 l 1
 438.5 0 l 1
 186.5 333 l 1
 186.5 0 l 1
 62.5 0 l 1
 62.5 876 l 1
 186.5 876 l 1
 186.5 542 l 1
 438.5 876 l 1xb0
EndSplineSet
EndChar

StartChar: L
Encoding: 76 76 11
Width: 625
VWidth: 0
Flags: HW
HStem: 0 124<186.5 562.5> 856 20G<62.5 186.5>
VStem: 62.5 124<124 876>
LayerCount: 2
Fore
SplineSet
62.5 876 m 1
 186.5 876 l 1
 186.5 124 l 1
 562.5 124 l 1
 562.5 0 l 1
 62.5 0 l 1
 62.5 876 l 1
EndSplineSet
EndChar

StartChar: M
Encoding: 77 77 12
Width: 750
VWidth: 0
Flags: HW
HStem: 0 21G<62.5 186.5 562.5 686.5> 0 21G<62.5 186.5 562.5 686.5> 856 20G<62.5 196.5 552.5 686.5>
VStem: 62.5 124<0 624> 562.5 124<0 624>
LayerCount: 2
Fore
SplineSet
186.5 624 m 1xb8
 186.5 0 l 1
 62.5 0 l 1
 62.5 876 l 1
 186.5 876 l 1
 374.5 500 l 1
 562.5 876 l 1
 686.5 876 l 1
 686.5 0 l 1
 562.5 0 l 1
 562.5 624 l 1
 438.5 376 l 1
 312.5 376 l 1
 186.5 624 l 1xb8
EndSplineSet
EndChar

StartChar: N
Encoding: 78 78 13
Width: 625
VWidth: 0
Flags: HW
HStem: 0 21G<62.5 186.5 429.855 562.5> 0 21G<62.5 186.5 429.855 562.5> 856 20G<62.5 195.115 438.5 562.5>
VStem: 62.5 124<0 583> 438.5 124<291 876>
LayerCount: 2
Fore
SplineSet
438.5 876 m 1xb8
 562.5 876 l 1
 562.5 0 l 1
 438.5 0 l 1
 186.5 583 l 1
 186.5 0 l 1
 62.5 0 l 1
 62.5 876 l 1
 186.5 876 l 1
 438.5 291 l 1
 438.5 876 l 1xb8
EndSplineSet
EndChar

StartChar: O
Encoding: 79 79 14
Width: 625
VWidth: 0
Flags: HW
HStem: 0 124<243.198 381.802> 750 126<243.198 381.802>
VStem: 62.5 124<181.585 692.572> 438.5 124<181.585 692.572>
LayerCount: 2
Fore
SplineSet
438.5 250 m 2
 438.5 624 l 2
 438.5 693 381.5 750 312.5 750 c 0
 243.5 750 186.5 693 186.5 624 c 2
 186.5 250 l 2
 186.5 181 243.5 124 312.5 124 c 0
 381.5 124 438.5 181 438.5 250 c 2
562.5 250 m 2
 562.5 112 450.5 0 312.5 0 c 0
 174.5 0 62.5 112 62.5 250 c 2
 62.5 624 l 2
 62.5 762 174.5 876 312.5 876 c 0
 450.5 876 562.5 762 562.5 624 c 2
 562.5 250 l 2
EndSplineSet
EndChar

StartChar: P
Encoding: 80 80 15
Width: 625
VWidth: 0
Flags: HW
HStem: 0 21G<62.5 186.5> 0 21G<62.5 186.5> 376 124<186.5 380.915> 750 126<186.5 380.915>
VStem: 62.5 124<0 376 500 750> 438.5 124<555.092 693.381>
LayerCount: 2
Fore
SplineSet
186.5 376 m 1xbc
 186.5 0 l 1
 62.5 0 l 1
 62.5 876 l 1
 312.5 876 l 0
 450.5 876 562.5 762 562.5 624 c 0
 562.5 486 450.5 376 312.5 376 c 2
 186.5 376 l 1xbc
186.5 500 m 1
 312.5 500 l 2
 381.5 500 438.5 555 438.5 624 c 0
 438.5 693 381.5 750 312.5 750 c 2
 186.5 750 l 1
 186.5 500 l 1
EndSplineSet
EndChar

StartChar: Aogonek
Encoding: 161 260 16
Width: 625
VWidth: 0
Flags: HW
HStem: -124 62<438.5 562.5> 0 21G<62.5 190.968 434.032 562.5> 0 21G<62.5 190.968 434.032 562.5> 188 124<254.5 370.5> 856 20G<246.208 378.792>
VStem: 438.5 124<-124 -62 0 31.3333>
LayerCount: 2
Fore
SplineSet
438.5 -62 m 1x9c
 562.5 -62 l 1
 562.5 -124 l 1
 438.5 -124 l 1
 438.5 -62 l 1x9c
374.5 876 m 1
 562.5 0 l 1
 438.5 0 l 1
 396.5 188 l 1
 228.5 188 l 1
 186.5 0 l 1
 62.5 0 l 1xdc
 250.5 876 l 1
 374.5 876 l 1
370.5 312 m 1
 312.5 583 l 1
 254.5 312 l 1
 370.5 312 l 1
EndSplineSet
EndChar

StartChar: Lslash
Encoding: 163 321 17
Width: 625
VWidth: 0
Flags: HW
HStem: 0 124<186.5 562.5> 856 20G<62.5 186.5>
VStem: 62.5 124<124 312 500 876>
LayerCount: 2
Fore
SplineSet
62.5 876 m 1
 186.5 876 l 1
 186.5 500 l 1
 312.5 624 l 1
 312.5 438 l 1
 186.5 312 l 1
 186.5 124 l 1
 562.5 124 l 1
 562.5 0 l 1
 62.5 0 l 1
 62.5 876 l 1
EndSplineSet
EndChar

StartChar: Cacute
Encoding: 198 262 18
Width: 625
VWidth: 0
Flags: HW
HStem: 0 124<243.198 381.802>
VStem: 62.5 124<181.585 689.707> 438.5 124<181.585 250 624 692.284>
LayerCount: 2
Fore
SplineSet
384.5 727 m 1
 374.5 688 l 1
 250.5 688 l 1
 263.5 740 l 1
 219.5 721 186.5 675 186.5 624 c 2
 186.5 250 l 2
 186.5 181 243.5 124 312.5 124 c 0
 381.5 124 438.5 181 438.5 250 c 1
 562.5 250 l 1
 562.5 112 450.5 0 312.5 0 c 0
 174.5 0 62.5 112 62.5 250 c 2
 62.5 624 l 2
 62.5 756 166.5 866 296.5 874 c 1
 312.5 938 l 1
 438.5 938 l 1
 415.5 852 l 1
 502.5 812 562.5 725 562.5 624 c 1
 438.5 624 l 1
 438.5 666 416.5 705 384.5 727 c 1
EndSplineSet
EndChar

StartChar: Eogonek
Encoding: 202 280 19
Width: 625
VWidth: 0
Flags: HW
HStem: -124 62<438.5 562.5> 0 124<186.5 562.5> 376 124<186.5 438.5> 750 126<186.5 562.5>
VStem: 62.5 124<124 376 500 750> 438.5 124<-124 -62>
LayerCount: 2
Fore
SplineSet
438.5 -62 m 1
 562.5 -62 l 1
 562.5 -124 l 1
 438.5 -124 l 1
 438.5 -62 l 1
438.5 500 m 1
 438.5 376 l 1
 186.5 376 l 1
 186.5 124 l 1
 562.5 124 l 1
 562.5 0 l 1
 62.5 0 l 1
 62.5 876 l 1
 562.5 876 l 1
 562.5 750 l 1
 186.5 750 l 1
 186.5 500 l 1
 438.5 500 l 1
EndSplineSet
EndChar

StartChar: R
Encoding: 82 82 20
Width: 625
VWidth: 0
Flags: HW
HStem: 0 21G<62.5 186.5 425.096 562.5> 0 21G<62.5 186.5 425.096 562.5> 376 124<312.5 380.915> 750 126<186.5 380.915>
VStem: 62.5 124<0 376 500 750> 438.5 124<555.092 693.381>
LayerCount: 2
Fore
SplineSet
186.5 500 m 1x3c
 312.5 500 l 2
 381.5 500 438.5 555 438.5 624 c 0
 438.5 693 381.5 750 312.5 750 c 2
 186.5 750 l 1
 186.5 500 l 1x3c
312.5 376 m 1
 562.5 0 l 1
 438.5 0 l 1
 186.5 376 l 1
 186.5 0 l 1
 62.5 0 l 1xbc
 62.5 291 62.5 585 62.5 876 c 1
 312.5 876 l 2
 450.5 876 562.5 762 562.5 624 c 0
 562.5 486 450.5 376 312.5 376 c 1
EndSplineSet
EndChar

StartChar: S
Encoding: 83 83 21
Width: 625
VWidth: 0
Flags: HW
HStem: 0 124<243.198 381.802> 376 124<244.085 380.915> 750 126<243.198 381.802>
VStem: 62.5 124<181.585 250 555.092 693.381> 438.5 124<180.698 319.302 624 692.572>
LayerCount: 2
Fore
SplineSet
62.5 624 m 0
 62.5 762 174.5 876 312.5 876 c 0
 450.5 876 562.5 762 562.5 624 c 1
 438.5 624 l 1
 438.5 693 381.5 750 312.5 750 c 0
 243.5 750 186.5 693 186.5 624 c 0
 186.5 555 243.5 500 312.5 500 c 0
 450.5 500 562.5 388 562.5 250 c 0
 562.5 112 450.5 0 312.5 0 c 0
 174.5 0 62.5 112 62.5 250 c 1
 186.5 250 l 1
 186.5 181 243.5 124 312.5 124 c 0
 381.5 124 438.5 181 438.5 250 c 0
 438.5 319 381.5 376 312.5 376 c 0
 174.5 376 62.5 486 62.5 624 c 0
EndSplineSet
EndChar

StartChar: Sacute
Encoding: 166 346 22
Width: 625
VWidth: 0
Flags: HW
HStem: 0 124<243.198 381.802> 376 124<244.085 380.915>
VStem: 62.5 124<181.585 250 555.092 690.898> 438.5 124<180.698 319.302 624 692.284>
LayerCount: 2
Fore
SplineSet
415.5 852 m 1
 502.5 812 562.5 725 562.5 624 c 1
 438.5 624 l 1
 438.5 666 416.5 705 384.5 727 c 1
 374.5 688 l 1
 250.5 688 l 1
 263.5 740 l 1
 219.5 721 186.5 675 186.5 624 c 0
 186.5 555 243.5 500 312.5 500 c 0
 450.5 500 562.5 388 562.5 250 c 0
 562.5 112 450.5 0 312.5 0 c 0
 174.5 0 62.5 112 62.5 250 c 1
 186.5 250 l 1
 186.5 181 243.5 124 312.5 124 c 0
 381.5 124 438.5 181 438.5 250 c 0
 438.5 319 381.5 376 312.5 376 c 0
 174.5 376 62.5 486 62.5 624 c 0
 62.5 756 166.5 866 296.5 874 c 1
 312.5 938 l 1
 438.5 938 l 1
 415.5 852 l 1
EndSplineSet
EndChar

StartChar: T
Encoding: 84 84 23
Width: 625
VWidth: 0
Flags: HW
HStem: 0 21G<250.5 374.5> 0 21G<250.5 374.5> 750 126<62.5 250.5 374.5 562.5>
VStem: 250.5 124<0 750>
LayerCount: 2
Fore
SplineSet
62.5 876 m 1xb0
 562.5 876 l 1
 562.5 750 l 1
 374.5 750 l 1
 374.5 0 l 1
 250.5 0 l 1
 250.5 750 l 1
 62.5 750 l 1
 62.5 876 l 1xb0
EndSplineSet
EndChar

StartChar: U
Encoding: 85 85 24
Width: 625
VWidth: 0
Flags: HW
HStem: 0 124<243.198 381.802> 856 20G<62.5 186.5 438.5 562.5>
VStem: 62.5 124<181.585 876> 438.5 124<181.585 876>
LayerCount: 2
Fore
SplineSet
562.5 250 m 2
 562.5 112 450.5 0 312.5 0 c 0
 174.5 0 62.5 112 62.5 250 c 2
 62.5 876 l 1
 186.5 876 l 1
 186.5 250 l 2
 186.5 181 243.5 124 312.5 124 c 0
 381.5 124 438.5 181 438.5 250 c 2
 438.5 876 l 1
 562.5 876 l 1
 562.5 250 l 2
EndSplineSet
EndChar

StartChar: W
Encoding: 87 87 25
Width: 750
VWidth: 0
Flags: HW
HStem: 0 21G<62.5 196.5 552.5 686.5> 0 21G<62.5 196.5 552.5 686.5> 480 20G<302.42 448.42> 856 20G<62.5 186.5 562.5 686.5>
VStem: 62.5 124<250 876> 562.5 124<250 876>
LayerCount: 2
Fore
SplineSet
562.5 250 m 1xbc
 562.5 876 l 1
 686.5 876 l 1
 686.5 0 l 1
 562.5 0 l 1
 374.5 376 l 1
 186.5 0 l 1
 62.5 0 l 1
 62.5 876 l 1
 186.5 876 l 1
 186.5 250 l 1
 312.5 500 l 1
 438.5 500 l 1
 562.5 250 l 1xbc
EndSplineSet
EndChar

StartChar: Y
Encoding: 89 89 26
Width: 625
VWidth: 0
Flags: HW
HStem: 0 21G<250.5 374.5> 0 21G<250.5 374.5> 856 20G<62.5 194.045 430.955 562.5>
VStem: 250.5 124<0 376>
LayerCount: 2
Fore
SplineSet
62.5 876 m 1xb0
 186.5 876 l 1
 312.5 542 l 1
 438.5 876 l 1
 562.5 876 l 1
 374.5 376 l 1
 374.5 0 l 1
 250.5 0 l 1
 250.5 376 l 1
 62.5 876 l 1xb0
EndSplineSet
EndChar

StartChar: Z
Encoding: 90 90 27
Width: 625
VWidth: 0
Flags: HW
HStem: 0 124<186.5 562.5> 750 126<62.5 438.5>
LayerCount: 2
Fore
SplineSet
62.5 876 m 25
 562.5 876 l 25
 562.5 750 l 25
 186.5 124 l 25
 562.5 124 l 25
 562.5 0 l 25
 62.5 0 l 25
 62.5 124 l 25
 438.5 750 l 25
 62.5 750 l 25
 62.5 876 l 25
EndSplineSet
EndChar

StartChar: Oacute
Encoding: 211 211 28
Width: 625
VWidth: 0
Flags: HW
HStem: 0 124<243.198 381.802>
VStem: 62.5 124<181.585 689.707> 438.5 124<181.585 692.284>
LayerCount: 2
Fore
SplineSet
562.5 250 m 2
 562.5 112 450.5 0 312.5 0 c 0
 174.5 0 62.5 112 62.5 250 c 2
 62.5 624 l 2
 62.5 756 166.5 866 296.5 874 c 1
 312.5 938 l 1
 438.5 938 l 1
 415.5 852 l 1
 502.5 812 562.5 725 562.5 624 c 2
 562.5 250 l 2
438.5 250 m 2
 438.5 624 l 2
 438.5 666 416.5 705 384.5 727 c 1
 374.5 688 l 1
 250.5 688 l 1
 263.5 740 l 1
 219.5 721 186.5 675 186.5 624 c 2
 186.5 250 l 2
 186.5 181 243.5 124 312.5 124 c 0
 381.5 124 438.5 181 438.5 250 c 2
EndSplineSet
EndChar

StartChar: Nacute
Encoding: 209 323 29
Width: 625
VWidth: 0
Flags: HW
HStem: 0 21G<62.5 186.5 429.855 562.5> 0 21G<62.5 186.5 429.855 562.5> 856 20G<62.5 195.115 438.5 562.5>
VStem: 62.5 124<0 583> 438.5 124<291 876>
LayerCount: 2
Fore
SplineSet
250.5 812 m 25x38
 312.5 1000 l 25
 438.5 1000 l 25
 374.5 812 l 25
 250.5 812 l 25x38
438.5 876 m 1
 562.5 876 l 1
 562.5 0 l 1
 438.5 0 l 1
 186.5 583 l 1
 186.5 0 l 1
 62.5 0 l 1xb8
 62.5 876 l 1
 186.5 876 l 1
 438.5 291 l 1
 438.5 876 l 1
EndSplineSet
EndChar

StartChar: Zacute
Encoding: 172 377 30
Width: 625
VWidth: 0
Flags: HW
HStem: 0 124<186.5 562.5> 750 126<62.5 265.5 421.5 438.5>
LayerCount: 2
Fore
SplineSet
421.5 876 m 1
 562.5 876 l 1
 562.5 750 l 1
 186.5 124 l 1
 562.5 124 l 1
 562.5 0 l 1
 62.5 0 l 1
 62.5 124 l 1
 438.5 750 l 1
 390.5 750 l 1
 374.5 688 l 1
 250.5 688 l 1
 265.5 750 l 1
 62.5 750 l 1
 62.5 876 l 1
 296.5 876 l 1
 312.5 938 l 1
 438.5 938 l 1
 421.5 876 l 1
EndSplineSet
EndChar

StartChar: Zdotaccent
Encoding: 175 379 31
Width: 625
VWidth: 0
Flags: HW
HStem: 0 124<186.5 562.5> 750 126<62.5 438.5> 938 62<250.5 374.5>
VStem: 250.5 124<938 1000>
LayerCount: 2
Fore
SplineSet
250.5 1000 m 1
 374.5 1000 l 1
 374.5 938 l 1
 250.5 938 l 1
 250.5 1000 l 1
62.5 876 m 25
 562.5 876 l 25
 562.5 750 l 25
 186.5 124 l 25
 562.5 124 l 25
 562.5 0 l 25
 62.5 0 l 25
 62.5 124 l 25
 438.5 750 l 25
 62.5 750 l 25
 62.5 876 l 25
EndSplineSet
EndChar

StartChar: k
Encoding: 107 107 32
Width: 625
VWidth: 0
Flags: HW
HStem: 0 21G<62.5 186.5 418.34 562.5> 0 21G<62.5 186.5 418.34 562.5> 480 20G<418.34 562.5> 730 20G<62.5 186.5>
VStem: 62.5 124<0 750>
LayerCount: 2
Fore
SplineSet
62.5 750 m 1xb8
 186.5 750 l 1
 186.5 250 l 1
 438.5 500 l 1
 562.5 500 l 1
 312.5 250 l 1
 562.5 0 l 1
 438.5 0 l 1
 186.5 250 l 1
 186.5 0 l 1
 62.5 0 l 1
 62.5 750 l 1xb8
EndSplineSet
EndChar

StartChar: m
Encoding: 109 109 33
Width: 1000
VWidth: 0
Flags: HW
HStem: 0 21G<62.5 186.5 438.5 562.5 812.5 938.5> 0 21G<62.5 186.5 438.5 562.5 812.5 938.5> 376 124<242.244 382.765 616.804 755.881>
VStem: 62.5 124<0 320.189 467 500> 438.5 124<0 320.189> 812.5 126<0 318.415>
LayerCount: 2
Fore
SplineSet
62.5 500 m 1xbc
 186.5 500 l 1
 186.5 467 l 1
 223.5 488 266.5 500 312.5 500 c 0
 386.5 500 454.5 466 500.5 414 c 1
 546.5 466 612.5 500 686.5 500 c 0
 824.5 500 938.5 388 938.5 250 c 2
 938.5 0 l 1
 812.5 0 l 1
 812.5 250 l 2
 812.5 319 755.5 376 686.5 376 c 0
 617.5 376 562.5 319 562.5 250 c 2
 562.5 0 l 1
 438.5 0 l 1
 438.5 250 l 2
 438.5 319 381.5 376 312.5 376 c 0
 243.5 376 186.5 319 186.5 250 c 2
 186.5 0 l 1
 62.5 0 l 1
 62.5 500 l 1xbc
EndSplineSet
EndChar

StartChar: h
Encoding: 104 104 34
Width: 625
VWidth: 0
Flags: HW
HStem: 0 21G<62.5 186.5 438.5 562.5> 0 21G<62.5 186.5 438.5 562.5> 376 124<242.244 381.802> 730 20G<62.5 186.5>
VStem: 62.5 124<0 320.189 467 750> 438.5 124<0 318.415>
LayerCount: 2
Fore
SplineSet
62.5 750 m 1xbc
 186.5 750 l 1
 186.5 467 l 1
 223.5 488 266.5 500 312.5 500 c 0
 450.5 500 562.5 388 562.5 250 c 2
 562.5 0 l 1
 438.5 0 l 1
 438.5 250 l 2
 438.5 319 381.5 376 312.5 376 c 0
 243.5 376 186.5 319 186.5 250 c 2
 186.5 0 l 1
 62.5 0 l 1
 62.5 750 l 1xbc
EndSplineSet
EndChar

StartChar: slash
Encoding: 47 47 35
Width: 375
VWidth: 0
Flags: HW
HStem: 0 21G<62.5 189.377> 0 21G<62.5 189.377> 856 20G<183.669 312.5>
VStem: 62.5 250
LayerCount: 2
Fore
SplineSet
62.5 0 m 25xb0
 186.5 876 l 25
 312.5 876 l 25
 186.5 0 l 25
 62.5 0 l 25xb0
EndSplineSet
EndChar

StartChar: t
Encoding: 116 116 36
Width: 500
VWidth: 0
Flags: HW
HStem: 0 124<369.928 438.5> 500 124<62.5 186.5 312.5 438.5> 730 20G<186.5 312.5>
VStem: 186.5 126<181.585 500 624 750>
LayerCount: 2
Fore
SplineSet
186.5 750 m 1
 312.5 750 l 1
 312.5 624 l 1
 438.5 624 l 1
 438.5 500 l 1
 312.5 500 l 1
 312.5 250 l 2
 312.5 181 369.5 124 438.5 124 c 1
 438.5 0 l 1
 300.5 0 186.5 112 186.5 250 c 2
 186.5 500 l 1
 62.5 500 l 1
 62.5 624 l 1
 186.5 624 l 1
 186.5 750 l 1
EndSplineSet
EndChar

StartChar: o
Encoding: 111 111 37
Width: 625
VWidth: 0
Flags: HW
HStem: 0 124<243.198 381.802> 376 124<243.198 381.802>
VStem: 62.5 124<180.698 319.302> 438.5 124<180.698 319.302>
LayerCount: 2
Fore
SplineSet
186.5 250 m 0
 186.5 181 243.5 124 312.5 124 c 0
 381.5 124 438.5 181 438.5 250 c 0
 438.5 319 381.5 376 312.5 376 c 0
 243.5 376 186.5 319 186.5 250 c 0
62.5 250 m 0
 62.5 388 174.5 500 312.5 500 c 0
 450.5 500 562.5 388 562.5 250 c 0
 562.5 112 450.5 0 312.5 0 c 0
 174.5 0 62.5 112 62.5 250 c 0
EndSplineSet
EndChar

StartChar: p
Encoding: 112 112 38
Width: 625
VWidth: 0
Flags: HW
HStem: 0 124<242.244 381.802> 376 124<242.244 381.802>
VStem: 62.5 124<-124 33 179.811 320.189 467 500> 438.5 124<180.698 319.302>
LayerCount: 2
Fore
SplineSet
62.5 500 m 1
 186.5 500 l 1
 186.5 467 l 1
 223.5 488 266.5 500 312.5 500 c 0
 450.5 500 562.5 388 562.5 250 c 0
 562.5 112 450.5 0 312.5 0 c 0
 266.5 0 223.5 12 186.5 33 c 1
 186.5 -124 l 1
 62.5 -124 l 1
 62.5 500 l 1
186.5 250 m 0
 186.5 181 243.5 124 312.5 124 c 0
 381.5 124 438.5 181 438.5 250 c 0
 438.5 319 381.5 376 312.5 376 c 0
 243.5 376 186.5 319 186.5 250 c 0
EndSplineSet
EndChar

StartChar: r
Encoding: 114 114 39
Width: 375
VWidth: 0
Flags: HW
HStem: 0 21G<62.5 186.5> 0 21G<62.5 186.5> 376 124<242.311 312.5>
VStem: 62.5 124<0 320.189 467 500>
LayerCount: 2
Fore
SplineSet
62.5 500 m 1xb0
 186.5 500 l 1
 186.5 467 l 1
 223.5 488 266.5 500 312.5 500 c 1
 312.5 376 l 1
 243.5 376 186.5 319 186.5 250 c 2
 186.5 0 l 1
 62.5 0 l 1
 62.5 500 l 1xb0
EndSplineSet
EndChar

StartChar: z
Encoding: 122 122 40
Width: 625
VWidth: 0
Flags: HW
HStem: 0 124<229.5 562.5> 376 124<62.5 395.5>
LayerCount: 2
Fore
SplineSet
395.5 376 m 1
 62.5 376 l 1
 62.5 500 l 1
 562.5 500 l 1
 562.5 376 l 1
 229.5 124 l 1
 562.5 124 l 1
 562.5 0 l 1
 62.5 0 l 1
 62.5 124 l 1
 395.5 376 l 1
EndSplineSet
EndChar

StartChar: zero
Encoding: 48 48 41
Width: 625
VWidth: 0
Flags: HW
HStem: 0 124<243.198 381.802> 750 126<243.198 381.802>
VStem: 62.5 124<181.585 692.572> 438.5 124<181.585 692.572>
LayerCount: 2
Fore
SplineSet
438.5 250 m 2
 438.5 624 l 2
 438.5 693 381.5 750 312.5 750 c 0
 243.5 750 186.5 693 186.5 624 c 2
 186.5 250 l 2
 186.5 181 243.5 124 312.5 124 c 0
 381.5 124 438.5 181 438.5 250 c 2
562.5 250 m 2
 562.5 112 450.5 0 312.5 0 c 0
 174.5 0 62.5 112 62.5 250 c 2
 62.5 624 l 2
 62.5 762 174.5 876 312.5 876 c 0
 450.5 876 562.5 762 562.5 624 c 2
 562.5 250 l 2
EndSplineSet
EndChar

StartChar: one
Encoding: 49 49 42
Width: 375
VWidth: 0
Flags: HW
HStem: 0 21G<186.5 312.5> 0 21G<186.5 312.5> 856 20G<176.659 312.5>
VStem: 186.5 126<0 624>
LayerCount: 2
Fore
SplineSet
62.5 624 m 1xb0
 186.5 876 l 25
 312.5 876 l 25
 312.5 0 l 25
 186.5 0 l 1
 186.5 624 l 25
 62.5 624 l 1xb0
EndSplineSet
EndChar

StartChar: two
Encoding: 50 50 43
Width: 625
VWidth: 0
Flags: HW
HStem: 0 124<224.5 562.5> 750 126<243.198 381.802>
VStem: 62.5 124<624 692.572> 438.5 124<555.97 693.381>
LayerCount: 2
Fore
SplineSet
562.5 624 m 1
 562.5 564 541.5 510 505.5 467 c 2
 224.5 124 l 1
 562.5 124 l 1
 562.5 0 l 1
 62.5 0 l 1
 62.5 124 l 1
 409.5 546 l 2
 427.5 567 438.5 594 438.5 624 c 0
 438.5 693 381.5 750 312.5 750 c 0
 243.5 750 186.5 693 186.5 624 c 1
 62.5 624 l 1
 62.5 762 174.5 876 312.5 876 c 0
 450.5 876 562.5 762 562.5 624 c 1
EndSplineSet
EndChar

StartChar: eight
Encoding: 56 56 44
Width: 625
VWidth: 0
Flags: HW
HStem: 0 124<243.198 381.802> 376 124<242.311 382.689> 750 126<243.198 381.802>
VStem: 62.5 124<180.698 320.265 554.304 693.381> 438.5 124<180.698 320.265 554.304 693.381>
LayerCount: 2
Fore
SplineSet
62.5 624 m 0
 62.5 762 174.5 876 312.5 876 c 0
 450.5 876 562.5 762 562.5 624 c 0
 562.5 550 528.5 484 476.5 438 c 1
 528.5 392 562.5 324 562.5 250 c 0
 562.5 112 450.5 0 312.5 0 c 0
 174.5 0 62.5 112 62.5 250 c 0
 62.5 324 96.5 392 148.5 438 c 1
 96.5 484 62.5 550 62.5 624 c 0
186.5 250 m 0
 186.5 181 243.5 124 312.5 124 c 0
 381.5 124 438.5 181 438.5 250 c 0
 438.5 319 381.5 376 312.5 376 c 0
 243.5 376 186.5 319 186.5 250 c 0
312.5 500 m 0
 381.5 500 438.5 555 438.5 624 c 0
 438.5 693 381.5 750 312.5 750 c 0
 243.5 750 186.5 693 186.5 624 c 0
 186.5 555 243.5 500 312.5 500 c 0
EndSplineSet
EndChar

StartChar: three
Encoding: 51 51 45
Width: 625
VWidth: 0
Flags: HW
HStem: 0 124<243.198 381.802> 376 124<250.5 382.689> 750 126<243.198 381.802>
VStem: 62.5 124<181.585 250 624 692.572> 438.5 124<180.698 320.265 554.304 693.381>
LayerCount: 2
Fore
SplineSet
62.5 624 m 1
 62.5 762 174.5 876 312.5 876 c 0
 450.5 876 562.5 762 562.5 624 c 0
 562.5 550 528.5 484 476.5 438 c 1
 528.5 392 562.5 324 562.5 250 c 0
 562.5 112 450.5 0 312.5 0 c 0
 174.5 0 62.5 112 62.5 250 c 1
 186.5 250 l 1
 186.5 181 243.5 124 312.5 124 c 0
 381.5 124 438.5 181 438.5 250 c 0
 438.5 319 381.5 376 312.5 376 c 2
 250.5 376 l 1
 250.5 500 l 1
 312.5 500 l 2
 381.5 500 438.5 555 438.5 624 c 0
 438.5 693 381.5 750 312.5 750 c 0
 243.5 750 186.5 693 186.5 624 c 1
 62.5 624 l 1
EndSplineSet
EndChar

StartChar: four
Encoding: 52 52 46
Width: 625
VWidth: 0
Flags: HW
HStem: 0 21G<438.5 562.5> 0 21G<438.5 562.5> 250 126<218.5 438.5> 856 20G<423.46 562.5>
VStem: 438.5 124<0 250 376 667>
LayerCount: 2
Fore
SplineSet
562.5 0 m 1xb8
 438.5 0 l 1
 438.5 250 l 1
 62.5 250 l 1
 62.5 376 l 1
 438.5 876 l 1
 562.5 876 l 1
 562.5 0 l 1xb8
218.5 376 m 1
 438.5 376 l 1
 438.5 667 l 1
 218.5 376 l 1
EndSplineSet
EndChar

StartChar: six
Encoding: 54 54 47
Width: 625
VWidth: 0
Flags: HW
HStem: 0 124<243.198 381.802> 438 124<242.244 381.802> 750 126<243.198 381.802>
VStem: 62.5 124<181.585 382.189 529 692.572> 438.5 124<181.585 380.415 624 692.572>
LayerCount: 2
Fore
SplineSet
186.5 312 m 2
 186.5 250 l 2
 186.5 181 243.5 124 312.5 124 c 0
 381.5 124 438.5 181 438.5 250 c 0
 438.5 271 438.5 291 438.5 312 c 0
 438.5 381 381.5 438 312.5 438 c 0
 243.5 438 186.5 381 186.5 312 c 2
562.5 312 m 2
 562.5 250 l 2
 562.5 112 450.5 0 312.5 0 c 0
 174.5 0 62.5 112 62.5 250 c 2
 62.5 624 l 2
 62.5 762 174.5 876 312.5 876 c 0
 450.5 876 562.5 762 562.5 624 c 1
 438.5 624 l 1
 438.5 693 381.5 750 312.5 750 c 0
 243.5 750 186.5 693 186.5 624 c 2
 186.5 529 l 1
 223.5 550 266.5 562 312.5 562 c 0
 450.5 562 562.5 450 562.5 312 c 2
EndSplineSet
EndChar

StartChar: nine
Encoding: 57 57 48
Width: 625
VWidth: 0
Flags: HW
HStem: 0 124<243.198 381.802> 312 126<243.198 382.756> 750 126<243.198 381.802>
VStem: 62.5 124<181.585 250 493.585 692.572> 438.5 124<181.585 347 492.443 692.572>
LayerCount: 2
Fore
SplineSet
438.5 562 m 2
 438.5 624 l 2
 438.5 693 381.5 750 312.5 750 c 0
 243.5 750 186.5 693 186.5 624 c 0
 186.5 603 186.5 583 186.5 562 c 0
 186.5 493 243.5 438 312.5 438 c 0
 381.5 438 438.5 493 438.5 562 c 2
62.5 562 m 2
 62.5 624 l 2
 62.5 762 174.5 876 312.5 876 c 0
 450.5 876 562.5 762 562.5 624 c 2
 562.5 250 l 2
 562.5 112 450.5 0 312.5 0 c 0
 174.5 0 62.5 112 62.5 250 c 1
 186.5 250 l 1
 186.5 181 243.5 124 312.5 124 c 0
 381.5 124 438.5 181 438.5 250 c 2
 438.5 347 l 1
 401.5 326 358.5 312 312.5 312 c 0
 174.5 312 62.5 424 62.5 562 c 2
EndSplineSet
EndChar

StartChar: five
Encoding: 53 53 49
Width: 625
VWidth: 0
Flags: HW
HStem: 0 124<243.198 381.802> 500 124<186.5 380.915> 750 126<186.5 562.5>
VStem: 62.5 124<181.585 250 624 750> 438.5 124<181.585 444.258>
LayerCount: 2
Fore
SplineSet
186.5 250 m 1
 186.5 181 243.5 124 312.5 124 c 0
 381.5 124 438.5 181 438.5 250 c 0
 438.5 271 438.5 355 438.5 376 c 0
 438.5 445 381.5 500 312.5 500 c 0
 62.5 500 l 1
 62.5 876 l 1
 562.5 876 l 1
 562.5 750 l 1
 186.5 750 l 1
 186.5 624 l 1
 312.5 624 l 2
 450.5 624 562.5 514 562.5 376 c 2
 562.5 250 l 2
 562.5 112 450.5 0 312.5 0 c 0
 174.5 0 62.5 112 62.5 250 c 1
 186.5 250 l 1
EndSplineSet
EndChar

StartChar: seven
Encoding: 55 55 50
Width: 625
VWidth: 0
Flags: HW
HStem: 0 21G<62.5 211.127> 0 21G<62.5 211.127> 750 126<62.5 423.5>
LayerCount: 2
Fore
SplineSet
423.5 750 m 1xa0
 62.5 750 l 1
 62.5 876 l 1
 562.5 876 l 1
 562.5 750 l 1
 201.5 0 l 1
 62.5 0 l 1
 423.5 750 l 1xa0
EndSplineSet
EndChar

StartChar: plus
Encoding: 43 43 51
Width: 500
VWidth: 0
Flags: HW
HStem: 376 124<62.5 186.5 312.5 438.5>
VStem: 186.5 126<250 376 500 624>
LayerCount: 2
Fore
SplineSet
186.5 624 m 1
 312.5 624 l 1
 312.5 500 l 1
 438.5 500 l 1
 438.5 376 l 1
 312.5 376 l 1
 312.5 250 l 1
 186.5 250 l 1
 186.5 376 l 1
 62.5 376 l 1
 62.5 500 l 1
 186.5 500 l 1
 186.5 624 l 1
EndSplineSet
EndChar

StartChar: hyphen
Encoding: 45 45 52
Width: 500
VWidth: 0
Flags: HW
HStem: 376 124<62.5 438.5>
LayerCount: 2
Fore
SplineSet
62.5 500 m 1
 438.5 500 l 1
 438.5 376 l 1
 62.5 376 l 1
 62.5 500 l 1
EndSplineSet
EndChar

StartChar: comma
Encoding: 44 44 53
Width: 250
VWidth: 0
Flags: HW
HStem: -124 248
VStem: 62.5 124<0 124>
LayerCount: 2
Fore
SplineSet
62.5 124 m 25
 186.5 124 l 25
 186.5 0 l 25
 62.5 -124 l 25
 62.5 124 l 25
EndSplineSet
EndChar

StartChar: a
Encoding: 97 97 54
Width: 625
VWidth: 0
Flags: HW
HStem: 0 124<243.198 382.756> 376 124<243.198 382.756>
VStem: 62.5 124<180.698 319.302> 438.5 124<0 33 179.811 320.189 467 500>
LayerCount: 2
Fore
SplineSet
62.5 250 m 0
 62.5 388 174.5 500 312.5 500 c 0
 358.5 500 401.5 488 438.5 467 c 1
 438.5 500 l 1
 562.5 500 l 1
 562.5 0 l 1
 438.5 0 l 1
 438.5 33 l 1
 401.5 12 358.5 0 312.5 0 c 0
 174.5 0 62.5 112 62.5 250 c 0
186.5 250 m 0
 186.5 181 243.5 124 312.5 124 c 0
 381.5 124 438.5 181 438.5 250 c 0
 438.5 319 381.5 376 312.5 376 c 0
 243.5 376 186.5 319 186.5 250 c 0
EndSplineSet
EndChar

StartChar: b
Encoding: 98 98 55
Width: 625
VWidth: 0
Flags: HW
HStem: 0 124<242.244 381.802> 376 124<242.244 381.802> 730 20G<62.5 186.5>
VStem: 62.5 124<0 33 179.811 320.189 467 750> 438.5 124<180.698 319.302>
LayerCount: 2
Fore
SplineSet
62.5 750 m 1
 186.5 750 l 1
 186.5 467 l 1
 223.5 488 266.5 500 312.5 500 c 0
 450.5 500 562.5 388 562.5 250 c 0
 562.5 112 450.5 0 312.5 0 c 0
 266.5 0 223.5 12 186.5 33 c 1
 186.5 0 l 1
 62.5 0 l 1
 62.5 750 l 1
186.5 250 m 0
 186.5 181 243.5 124 312.5 124 c 0
 381.5 124 438.5 181 438.5 250 c 0
 438.5 319 381.5 376 312.5 376 c 0
 243.5 376 186.5 319 186.5 250 c 0
EndSplineSet
EndChar

StartChar: c
Encoding: 99 99 56
Width: 625
VWidth: 0
Flags: HW
HStem: 0 124<243.198 380.573> 376 124<243.198 380.573>
VStem: 62.5 124<180.698 319.302>
LayerCount: 2
Fore
SplineSet
62.5 250 m 0
 62.5 388 174.5 500 312.5 500 c 0
 428.5 500 526.5 420 554.5 312 c 1
 420.5 312 l 1
 398.5 350 358.5 376 312.5 376 c 0
 243.5 376 186.5 319 186.5 250 c 0
 186.5 181 243.5 124 312.5 124 c 0
 358.5 124 398.5 150 420.5 188 c 1
 554.5 188 l 1
 526.5 80 428.5 0 312.5 0 c 0
 174.5 0 62.5 112 62.5 250 c 0
EndSplineSet
EndChar

StartChar: d
Encoding: 100 100 57
Width: 625
VWidth: 0
Flags: HW
HStem: 0 124<243.198 382.756> 376 124<243.198 382.756> 730 20G<438.5 562.5>
VStem: 62.5 124<180.698 319.302> 438.5 124<0 33 179.811 320.189 467 750>
LayerCount: 2
Fore
SplineSet
62.5 250 m 0
 62.5 388 174.5 500 312.5 500 c 0
 358.5 500 401.5 488 438.5 467 c 1
 438.5 750 l 1
 562.5 750 l 1
 562.5 500 562.5 250 562.5 0 c 1
 438.5 0 l 1
 438.5 33 l 1
 401.5 12 358.5 0 312.5 0 c 0
 174.5 0 62.5 112 62.5 250 c 0
186.5 250 m 0
 186.5 181 243.5 124 312.5 124 c 0
 381.5 124 438.5 181 438.5 250 c 0
 438.5 319 381.5 376 312.5 376 c 0
 243.5 376 186.5 319 186.5 250 c 0
EndSplineSet
EndChar

StartChar: aogonek
Encoding: 177 261 58
Width: 625
VWidth: 0
Flags: HW
HStem: -124 62<438.5 562.5> 0 124<243.198 382.756> 376 124<243.198 382.756>
VStem: 62.5 124<180.698 319.302> 438.5 124<-124 -62 0 33 179.811 320.189 467 500>
LayerCount: 2
Fore
SplineSet
438.5 -62 m 1
 562.5 -62 l 1
 562.5 -124 l 1
 438.5 -124 l 1
 438.5 -62 l 1
62.5 250 m 0
 62.5 388 174.5 500 312.5 500 c 0
 358.5 500 401.5 488 438.5 467 c 1
 438.5 500 l 1
 562.5 500 l 1
 562.5 0 l 1
 438.5 0 l 1
 438.5 33 l 1
 401.5 12 358.5 0 312.5 0 c 0
 174.5 0 62.5 112 62.5 250 c 0
186.5 250 m 0
 186.5 181 243.5 124 312.5 124 c 0
 381.5 124 438.5 181 438.5 250 c 0
 438.5 319 381.5 376 312.5 376 c 0
 243.5 376 186.5 319 186.5 250 c 0
EndSplineSet
EndChar

StartChar: period
Encoding: 46 46 59
Width: 250
VWidth: 0
Flags: HW
HStem: 0 124<62.5 186.5>
VStem: 62.5 124<0 124>
LayerCount: 2
Fore
SplineSet
62.5 124 m 1
 186.5 124 l 1
 186.5 0 l 1
 62.5 0 l 1
 62.5 124 l 1
EndSplineSet
EndChar

StartChar: e
Encoding: 101 101 60
Width: 625
VWidth: 0
Flags: HW
HStem: 0 124<244.377 438.5> 188 124<204.5 420.5> 376 124<244.231 380.769>
CounterMasks: 1 e0
LayerCount: 2
Fore
SplineSet
420.5 312 m 1
 398.5 350 358.5 376 312.5 376 c 0
 266.5 376 226.5 350 204.5 312 c 1
 420.5 312 l 1
62.5 250 m 0
 62.5 388 174.5 500 312.5 500 c 0
 450.5 500 562.5 388 562.5 250 c 0
 562.5 229 560.5 208 554.5 188 c 1
 204.5 188 l 1
 226.5 150 266.5 124 312.5 124 c 2
 438.5 124 l 1
 438.5 0 l 1
 312.5 0 l 2
 174.5 0 62.5 112 62.5 250 c 0
EndSplineSet
EndChar

StartChar: f
Encoding: 102 102 61
Width: 500
VWidth: 0
Flags: HW
HStem: 0 21G<186.5 312.5> 0 21G<186.5 312.5> 376 124<62.5 186.5 312.5 438.5> 624 126<369.928 438.5>
VStem: 186.5 126<0 376 500 568.415>
LayerCount: 2
Fore
SplineSet
186.5 0 m 1xb8
 186.5 376 l 1
 62.5 376 l 1
 62.5 500 l 1
 186.5 500 l 1
 186.5 638 300.5 750 438.5 750 c 1
 438.5 624 l 1
 369.5 624 312.5 569 312.5 500 c 2
 438.5 500 l 1
 438.5 376 l 1
 312.5 376 l 1
 312.5 0 l 1
 186.5 0 l 1xb8
EndSplineSet
EndChar

StartChar: g
Encoding: 103 103 62
Width: 625
VWidth: 0
Flags: HW
HStem: -217 126<312.5 380.915> 0 124<243.198 382.756> 376 124<243.198 382.756>
VStem: 62.5 124<180.698 319.302> 438.5 124<-34.0634 33 179.811 320.189 467 500>
LayerCount: 2
Fore
SplineSet
186.5 250 m 0
 186.5 181 243.5 124 312.5 124 c 0
 381.5 124 438.5 181 438.5 250 c 0
 438.5 319 381.5 376 312.5 376 c 0
 243.5 376 186.5 319 186.5 250 c 0
62.5 250 m 0
 62.5 388 174.5 500 312.5 500 c 0
 358.5 500 401.5 488 438.5 467 c 1
 438.5 500 l 1
 562.5 500 l 1
 562.5 33 l 0
 562.5 -105 450.5 -217 312.5 -217 c 1
 312.5 -91 l 1
 379.5 -91 438.5 -36 438.5 33 c 1
 401.5 12 358.5 0 312.5 0 c 0
 174.5 0 62.5 112 62.5 250 c 0
EndSplineSet
EndChar

StartChar: q
Encoding: 113 113 63
Width: 625
VWidth: 0
Flags: HW
HStem: 0 124<243.198 382.756> 376 124<243.198 382.756>
VStem: 62.5 124<180.698 319.302> 438.5 124<-124 33 179.811 320.189 467 500>
LayerCount: 2
Fore
SplineSet
186.5 250 m 0
 186.5 181 243.5 124 312.5 124 c 0
 381.5 124 438.5 181 438.5 250 c 0
 438.5 319 381.5 376 312.5 376 c 0
 243.5 376 186.5 319 186.5 250 c 0
62.5 250 m 0
 62.5 388 174.5 500 312.5 500 c 0
 358.5 500 401.5 488 438.5 467 c 1
 438.5 500 l 1
 562.5 500 l 1
 562.5 -124 l 1
 438.5 -124 l 1
 438.5 33 l 1
 401.5 12 358.5 0 312.5 0 c 0
 174.5 0 62.5 112 62.5 250 c 0
EndSplineSet
EndChar

StartChar: u
Encoding: 117 117 64
Width: 625
VWidth: 0
Flags: HW
HStem: 0 124<243.198 382.756> 480 20G<62.5 186.5 438.5 562.5>
VStem: 62.5 124<181.585 500> 438.5 124<0 33 179.811 500>
LayerCount: 2
Fore
SplineSet
438.5 0 m 1
 438.5 33 l 1
 401.5 12 358.5 0 312.5 0 c 0
 174.5 0 62.5 112 62.5 250 c 2
 62.5 500 l 1
 186.5 500 l 1
 186.5 250 l 2
 186.5 181 243.5 124 312.5 124 c 0
 381.5 124 438.5 181 438.5 250 c 2
 438.5 500 l 1
 562.5 500 l 1
 562.5 0 l 1
 438.5 0 l 1
EndSplineSet
EndChar

StartChar: n
Encoding: 110 110 65
Width: 625
VWidth: 0
Flags: HW
HStem: 0 21G<62.5 186.5 438.5 562.5> 0 21G<62.5 186.5 438.5 562.5> 376 124<242.244 381.802>
VStem: 62.5 124<0 320.189 467 500> 438.5 124<0 318.415>
LayerCount: 2
Fore
SplineSet
186.5 500 m 1xb8
 186.5 467 l 1
 223.5 488 266.5 500 312.5 500 c 0
 450.5 500 562.5 388 562.5 250 c 2
 562.5 0 l 1
 438.5 0 l 1
 438.5 250 l 2
 438.5 319 381.5 376 312.5 376 c 0
 243.5 376 186.5 319 186.5 250 c 2
 186.5 0 l 1
 62.5 0 l 1
 62.5 500 l 1
 186.5 500 l 1xb8
EndSplineSet
EndChar

StartChar: l
Encoding: 108 108 66
Width: 375
VWidth: 0
Flags: HW
HStem: 0 124<244.085 312.5> 730 20G<62.5 186.5>
VStem: 62.5 124<181.585 750>
LayerCount: 2
Fore
SplineSet
186.5 750 m 1
 186.5 250 l 2
 186.5 181 243.5 124 312.5 124 c 1
 312.5 0 l 1
 174.5 0 62.5 112 62.5 250 c 2
 62.5 750 l 1
 186.5 750 l 1
EndSplineSet
EndChar

StartChar: Q
Encoding: 81 81 67
Width: 625
VWidth: 0
Flags: HW
HStem: 0 124<243.198 382.473> 750 126<243.198 381.802>
VStem: 62.5 124<181.585 692.572> 438.5 124<179.811 692.572>
LayerCount: 2
Fore
SplineSet
438.5 250 m 2
 438.5 624 l 2
 438.5 693 381.5 750 312.5 750 c 0
 243.5 750 186.5 693 186.5 624 c 2
 186.5 250 l 2
 186.5 181 243.5 124 312.5 124 c 0
 381.5 124 438.5 181 438.5 250 c 2
428.5 29 m 1
 394.5 11 353.5 0 312.5 0 c 0
 174.5 0 62.5 112 62.5 250 c 2
 62.5 624 l 2
 62.5 762 174.5 876 312.5 876 c 0
 450.5 876 562.5 762 562.5 624 c 2
 562.5 250 l 2
 562.5 201 547.5 156 523.5 117 c 1
 562.5 0 l 1
 438.5 0 l 1
 428.5 29 l 1
EndSplineSet
EndChar

StartChar: V
Encoding: 86 86 68
Width: 625
VWidth: 0
Flags: HW
HStem: 0 21G<246.208 378.792> 0 21G<246.208 378.792> 856 20G<62.5 190.808 434.192 562.5>
LayerCount: 2
Fore
SplineSet
62.5 876 m 1xa0
 186.5 876 l 1
 312.5 291 l 1
 438.5 876 l 1
 562.5 876 l 1
 374.5 0 l 1
 250.5 0 l 1
 62.5 876 l 1xa0
EndSplineSet
EndChar

StartChar: X
Encoding: 88 88 69
Width: 625
VWidth: 0
Flags: HW
HStem: 0 21G<62.5 195.16 429.84 562.5> 0 21G<62.5 195.16 429.84 562.5> 856 20G<62.5 195.101 429.899 562.5>
LayerCount: 2
Fore
SplineSet
438.5 876 m 1xa0
 562.5 876 l 1
 374.5 438 l 1
 562.5 0 l 1
 438.5 0 l 1
 312.5 291 l 1
 186.5 0 l 1
 62.5 0 l 1
 250.5 438 l 1
 62.5 876 l 1
 186.5 876 l 1
 312.5 583 l 1
 438.5 876 l 1xa0
EndSplineSet
EndChar

StartChar: v
Encoding: 118 118 70
Width: 625
VWidth: 0
Flags: HW
HStem: 0 21G<242.98 382.02> 0 21G<242.98 382.02> 480 20G<62.5 194.068 430.932 562.5>
LayerCount: 2
Fore
SplineSet
62.5 500 m 1xa0
 186.5 500 l 1
 312.5 167 l 1
 438.5 500 l 1
 562.5 500 l 1
 374.5 0 l 1
 250.5 0 l 1
 62.5 500 l 1xa0
EndSplineSet
EndChar

StartChar: w
Encoding: 119 119 71
Width: 1000
VWidth: 0
Flags: HW
HStem: 0 21G<242.98 382.068 617.053 758.02> 0 21G<242.98 382.068 617.053 758.02> 480 20G<62.5 194.068 430.932 569.947 804.932 938.5>
LayerCount: 2
Fore
SplineSet
62.5 500 m 1xa0
 186.5 500 l 1
 312.5 167 l 1
 438.5 500 l 1
 562.5 500 l 1
 686.5 167 l 1
 812.5 500 l 1
 938.5 500 l 1
 750.5 0 l 1
 624.5 0 l 1
 500.5 333 l 1
 374.5 0 l 1
 250.5 0 l 1
 62.5 500 l 1xa0
EndSplineSet
EndChar

StartChar: x
Encoding: 120 120 72
Width: 625
VWidth: 0
Flags: HW
HStem: 0 21G<62.5 201.59 423.41 562.5> 0 21G<62.5 201.59 423.41 562.5> 480 20G<62.5 201.59 423.41 562.5>
LayerCount: 2
Fore
SplineSet
62.5 500 m 1xa0
 186.5 500 l 1
 312.5 333 l 1
 438.5 500 l 1
 562.5 500 l 1
 374.5 250 l 1
 562.5 0 l 1
 438.5 0 l 1
 312.5 167 l 1
 186.5 0 l 1
 62.5 0 l 1
 250.5 250 l 1
 62.5 500 l 1xa0
EndSplineSet
EndChar

StartChar: j
Encoding: 106 106 73
Width: 375
VWidth: 0
Flags: HW
HStem: -124 124<186.5 255.072> 500 124<312.5 438.5>
VStem: 312.5 126<55.7415 376 500 624>
LayerCount: 2
Fore
SplineSet
187.5 623 m 1
 313.5 623 l 1
 313.5 499 l 1
 187.5 499 l 1
 187.5 623 l 1
187.5 375 m 1
 313.5 375 l 1
 313.5 123 l 2
 313.5 -15 199.5 -125 61.5 -125 c 1
 61.5 -1 l 1
 130.5 -1 187.5 54 187.5 123 c 2
 187.5 375 l 1
EndSplineSet
EndChar

StartChar: i
Encoding: 105 105 74
Width: 250
VWidth: 0
Flags: HW
HStem: 0 21G<62.5 186.5> 0 21G<62.5 186.5> 500 124<62.5 186.5>
VStem: 62.5 124<0 376 500 624>
LayerCount: 2
Fore
SplineSet
62.5 624 m 1x30
 186.5 624 l 1
 186.5 500 l 1
 62.5 500 l 1
 62.5 624 l 1x30
62.5 376 m 1
 186.5 376 l 1
 186.5 0 l 1
 62.5 0 l 1xb0
 62.5 376 l 1
EndSplineSet
EndChar

StartChar: s
Encoding: 115 115 75
Width: 500
VWidth: 0
Flags: HW
HStem: 0 124<62.5 255.072> 188 124<204.5 295.5> 376 124<244.377 374.5>
VStem: 62.5 376<205.764 294.236>
CounterMasks: 1 e0
LayerCount: 2
Fore
SplineSet
186.5 0 m 2
 62.5 0 l 1
 62.5 124 l 1
 186.5 124 l 2
 232.5 124 273.5 150 295.5 188 c 1
 124.5 188 l 2
 72.5 188 62.5 229 62.5 250 c 0
 62.5 388 174.5 500 312.5 500 c 2
 374.5 500 l 1
 374.5 376 l 1
 312.5 376 l 2
 266.5 376 226.5 350 204.5 312 c 1
 374.5 312 l 2
 426.5 312 438.5 271 438.5 250 c 0
 438.5 112 324.5 0 186.5 0 c 2
EndSplineSet
EndChar

StartChar: y
Encoding: 121 121 76
Width: 625
VWidth: 0
Flags: HW
HStem: 480 20G<62.5 194.068 430.932 562.5>
LayerCount: 2
Fore
SplineSet
62.5 500 m 1
 186.5 500 l 1
 312.5 167 l 1
 438.5 500 l 1
 562.5 500 l 1
 374.5 0 l 1
 328.5 -124 l 1
 203.5 -124 l 1
 250.5 0 l 1
 62.5 500 l 1
EndSplineSet
EndChar

StartChar: cacute
Encoding: 230 263 77
Width: 625
VWidth: 0
Flags: HW
HStem: 0 124<243.198 380.573> 376 124<243.198 380.573> 730 20G<305.904 438.5>
VStem: 62.5 124<180.698 319.302>
LayerCount: 2
Fore
SplineSet
250.5 562 m 25
 312.5 750 l 25
 438.5 750 l 25
 374.5 562 l 25
 250.5 562 l 25
62.5 250 m 0
 62.5 388 174.5 500 312.5 500 c 0
 428.5 500 526.5 420 554.5 312 c 1
 420.5 312 l 1
 398.5 350 358.5 376 312.5 376 c 0
 243.5 376 186.5 319 186.5 250 c 0
 186.5 181 243.5 124 312.5 124 c 0
 358.5 124 398.5 150 420.5 188 c 1
 554.5 188 l 1
 526.5 80 428.5 0 312.5 0 c 0
 174.5 0 62.5 112 62.5 250 c 0
EndSplineSet
EndChar

StartChar: oacute
Encoding: 243 243 78
Width: 625
VWidth: 0
Flags: HW
HStem: 0 124<243.198 381.802> 376 124<243.198 381.802> 730 20G<305.904 438.5>
VStem: 62.5 124<180.698 319.302> 438.5 124<180.698 319.302>
LayerCount: 2
Fore
SplineSet
250.5 562 m 25
 312.5 750 l 25
 438.5 750 l 25
 374.5 562 l 25
 250.5 562 l 25
186.5 250 m 0
 186.5 181 243.5 124 312.5 124 c 0
 381.5 124 438.5 181 438.5 250 c 0
 438.5 319 381.5 376 312.5 376 c 0
 243.5 376 186.5 319 186.5 250 c 0
62.5 250 m 0
 62.5 388 174.5 500 312.5 500 c 0
 450.5 500 562.5 388 562.5 250 c 0
 562.5 112 450.5 0 312.5 0 c 0
 174.5 0 62.5 112 62.5 250 c 0
EndSplineSet
EndChar

StartChar: eogonek
Encoding: 234 281 79
Width: 625
VWidth: 0
Flags: HW
HStem: -124 62<312.5 438.5> 0 124<244.377 438.5> 188 124<204.5 420.5> 376 124<244.231 380.769>
VStem: 312.5 126<-124 -62>
LayerCount: 2
Fore
SplineSet
312.5 -62 m 1
 438.5 -62 l 1
 438.5 -124 l 1
 312.5 -124 l 1
 312.5 -62 l 1
420.5 312 m 1
 398.5 350 358.5 376 312.5 376 c 0
 266.5 376 226.5 350 204.5 312 c 1
 420.5 312 l 1
62.5 250 m 0
 62.5 388 174.5 500 312.5 500 c 0
 450.5 500 562.5 388 562.5 250 c 0
 562.5 229 560.5 208 554.5 188 c 1
 204.5 188 l 1
 226.5 150 266.5 124 312.5 124 c 2
 438.5 124 l 1
 438.5 0 l 1
 312.5 0 l 2
 174.5 0 62.5 112 62.5 250 c 0
EndSplineSet
EndChar

StartChar: lslash
Encoding: 179 322 80
Width: 375
VWidth: 0
Flags: HW
HStem: 0 124<244.085 312.5> 730 20G<62.5 186.5>
VStem: 62.5 124<181.585 250 438 750>
LayerCount: 2
Fore
SplineSet
186.5 250 m 1
 186.5 181 243.5 124 312.5 124 c 1
 312.5 0 l 1
 174.5 0 62.5 112 62.5 250 c 2
 62.5 750 l 1
 186.5 750 l 1
 186.5 438 l 1
 312.5 562 l 1
 312.5 376 l 1
 186.5 250 l 1
EndSplineSet
EndChar

StartChar: sacute
Encoding: 182 347 81
Width: 500
VWidth: 0
Flags: HW
HStem: 0 124<62.5 255.072> 188 124<204.5 295.5> 376 124<244.377 374.5> 730 20G<243.691 374.5>
VStem: 62.5 376<205.764 294.236>
LayerCount: 2
Fore
SplineSet
186.5 562 m 25
 250.5 750 l 25
 374.5 750 l 25
 312.5 562 l 25
 186.5 562 l 25
186.5 0 m 2
 62.5 0 l 1
 62.5 124 l 1
 186.5 124 l 2
 232.5 124 273.5 150 295.5 188 c 1
 124.5 188 l 2
 72.5 188 62.5 229 62.5 250 c 0
 62.5 388 174.5 500 312.5 500 c 2
 374.5 500 l 1
 374.5 376 l 1
 312.5 376 l 2
 266.5 376 226.5 350 204.5 312 c 1
 374.5 312 l 2
 426.5 312 438.5 271 438.5 250 c 0
 438.5 112 324.5 0 186.5 0 c 2
EndSplineSet
EndChar

StartChar: zacute
Encoding: 188 378 82
Width: 625
VWidth: 0
Flags: HW
HStem: 0 124<229.5 562.5> 376 124<62.5 395.5> 730 20G<305.904 438.5>
LayerCount: 2
Fore
SplineSet
250.5 562 m 25
 312.5 750 l 25
 438.5 750 l 25
 374.5 562 l 25
 250.5 562 l 25
395.5 376 m 1
 62.5 376 l 1
 62.5 500 l 1
 562.5 500 l 1
 562.5 376 l 1
 229.5 124 l 1
 562.5 124 l 1
 562.5 0 l 1
 62.5 0 l 1
 62.5 124 l 1
 395.5 376 l 1
EndSplineSet
EndChar

StartChar: zdotaccent
Encoding: 191 380 83
Width: 625
VWidth: 0
Flags: HW
HStem: 0 124<229.5 562.5> 376 124<62.5 395.5> 562 62<250.5 374.5>
VStem: 250.5 124<562 624>
LayerCount: 2
Fore
SplineSet
250.5 624 m 1
 374.5 624 l 1
 374.5 562 l 1
 250.5 562 l 1
 250.5 624 l 1
395.5 376 m 1
 62.5 376 l 1
 62.5 500 l 1
 562.5 500 l 1
 562.5 376 l 1
 229.5 124 l 1
 562.5 124 l 1
 562.5 0 l 1
 62.5 0 l 1
 62.5 124 l 1
 395.5 376 l 1
EndSplineSet
EndChar

StartChar: nacute
Encoding: 241 324 84
Width: 625
VWidth: 0
Flags: HW
HStem: 0 21G<62.5 186.5 438.5 562.5> 0 21G<62.5 186.5 438.5 562.5> 376 124<242.244 381.802> 730 20G<305.904 438.5>
VStem: 62.5 124<0 320.189 467 500> 438.5 124<0 318.415>
LayerCount: 2
Fore
SplineSet
250.5 562 m 25x3c
 312.5 750 l 25
 438.5 750 l 25
 374.5 562 l 25
 250.5 562 l 25x3c
186.5 500 m 1
 186.5 467 l 1
 223.5 488 266.5 500 312.5 500 c 0
 450.5 500 562.5 388 562.5 250 c 2
 562.5 0 l 1
 438.5 0 l 1
 438.5 250 l 2
 438.5 319 381.5 376 312.5 376 c 0
 243.5 376 186.5 319 186.5 250 c 2
 186.5 0 l 1
 62.5 0 l 1xbc
 62.5 500 l 1
 186.5 500 l 1
EndSplineSet
EndChar

